<svg width="11.919922" height="16.000000" viewBox="0 0 11.9199 16" fill="none" xmlns="http://www.w3.org/2000/svg" xmlns:xlink="http://www.w3.org/1999/xlink">
	<desc>
			Created with Pixso.
	</desc>
	<defs>
		<clipPath id="clip128_242">
			<rect id="pinterest-p-brands 1" width="11.919281" height="16.000000" fill="white" fill-opacity="0"/>
		</clipPath>
	</defs>
	<rect id="pinterest-p-brands 1" width="11.919281" height="16.000000" fill="#FFFFFF" fill-opacity="0"/>
	<g clip-path="url(#clip128_242)">
		<path id="Vector" d="M6.33203 0.203125C3.14648 0.203125 0 2.33984 0 5.80078C0 8 1.22852 9.25 1.97461 9.25C2.28125 9.25 2.45898 8.38672 2.45898 8.14453C2.45898 7.85352 1.72266 7.23438 1.72266 6.02539C1.72266 3.51172 3.62305 1.73047 6.08008 1.73047C8.19531 1.73047 9.75977 2.94141 9.75977 5.16211C9.75977 6.82227 9.09766 9.93359 6.95508 9.93359C6.18359 9.93359 5.52148 9.37109 5.52148 8.56641C5.52148 7.38477 6.3418 6.24023 6.3418 5.02148C6.3418 2.95312 3.42773 3.32812 3.42773 5.82812C3.42773 6.35352 3.49219 6.93359 3.72461 7.41211C3.29688 9.26953 2.42188 12.0352 2.42188 13.9473C2.42188 14.5371 2.50586 15.1191 2.56055 15.709C2.66602 15.8281 2.61328 15.8164 2.77539 15.7559C4.33984 13.5996 4.2832 13.1777 4.99023 10.3555C5.37305 11.0879 6.35938 11.4805 7.14258 11.4805C10.4395 11.4805 11.9199 8.24609 11.9199 5.33203C11.9199 2.22852 9.25586 0.203125 6.33203 0.203125Z" fill="#000000" fill-opacity="1.000000" fill-rule="nonzero"/>
	</g>
</svg>
