<svg width="15.892578" height="12.994141" viewBox="0 0 15.8926 12.9941" fill="none" xmlns="http://www.w3.org/2000/svg" xmlns:xlink="http://www.w3.org/1999/xlink">
	<desc>
			Created with Pixso.
	</desc>
	<defs/>
	<path id="Vector" d="M14.2578 3.23828C14.2695 3.38086 14.2695 3.52344 14.2695 3.66406C14.2695 8 10.9922 12.9941 5.00195 12.9941C3.15625 12.9941 1.44141 12.457 0 11.5234C0.261719 11.5527 0.513672 11.5625 0.787109 11.5625C2.30859 11.5625 3.71094 11.0449 4.83008 10.1621C3.39844 10.1328 2.19922 9.1875 1.78516 7.88867C1.98633 7.91797 2.1875 7.93945 2.40039 7.93945C2.69336 7.93945 2.98438 7.89844 3.25781 7.82812C1.76562 7.52344 0.644531 6.20312 0.644531 4.60938L0.644531 4.56836C1.07812 4.8125 1.58398 4.96484 2.11719 4.98438C1.24023 4.39648 0.666016 3.39062 0.666016 2.25391C0.666016 1.64453 0.826172 1.08594 1.10938 0.599609C2.71289 2.58789 5.12305 3.88867 7.82422 4.03125C7.77539 3.78711 7.74414 3.5332 7.74414 3.2793C7.74414 1.47266 9.19727 0 11.002 0C11.9395 0 12.7871 0.396484 13.3809 1.03516C14.1172 0.892578 14.8242 0.619141 15.4492 0.244141C15.207 1.00586 14.6914 1.64453 14.0176 2.05078C14.6719 1.98047 15.3066 1.79688 15.8926 1.54297C15.4492 2.19336 14.8945 2.77148 14.2578 3.23828Z" fill="#000000" fill-opacity="1.000000" fill-rule="nonzero"/>
</svg>
