<svg width="26.001953" height="26.792969" viewBox="0 0 26.002 26.793" fill="none" xmlns="http://www.w3.org/2000/svg" xmlns:xlink="http://www.w3.org/1999/xlink">
	<desc>
			Created with Pixso.
	</desc>
	<defs/>
	<path d="M18.0625 17.4141C19.6738 15.6562 20.6309 13.3945 20.7715 11.0117C20.9141 8.62891 20.2305 6.26953 18.8398 4.33203C17.4473 2.39453 15.4297 0.992188 13.127 0.367188C10.8262 -0.261719 8.37695 -0.078125 6.19336 0.886719C4.01172 1.85156 2.22656 3.53906 1.14062 5.66016C0.0527344 7.78516 -0.269531 10.2227 0.226562 12.5547C0.722656 14.8906 2.00781 16.9805 3.86328 18.4805C5.7207 19.9805 8.03516 20.7969 10.4219 20.7891C12.6758 20.793 14.8672 20.0586 16.6621 18.6992L24.4102 26.5078C24.4961 26.5977 24.5977 26.668 24.7109 26.7148C24.8242 26.7656 24.9473 26.7891 25.0703 26.793C25.1934 26.793 25.3164 26.7656 25.4297 26.7188C25.543 26.668 25.6465 26.5977 25.7305 26.5078C25.9043 26.3242 26.002 26.0859 26.002 25.832C26.002 25.582 25.9043 25.3438 25.7305 25.1602L18.0625 17.4141ZM1.88867 10.2891C1.90234 8.60547 2.41211 6.96094 3.35938 5.56641C4.30469 4.17188 5.64258 3.08594 7.20312 2.44922C8.76367 1.81641 10.4766 1.65625 12.1289 1.99219C13.7793 2.32812 15.2949 3.14844 16.4824 4.34375C17.668 5.53906 18.4746 7.05859 18.7988 8.71484C19.123 10.3672 18.9512 12.082 18.3027 13.6367C17.6543 15.1914 16.5605 16.5234 15.1582 17.457C13.7559 18.3906 12.1074 18.8906 10.4219 18.8906C8.15039 18.8789 5.97656 17.9688 4.37695 16.3555C2.77734 14.7422 1.88281 12.5625 1.88867 10.2891Z" fill="#E8E8E8" fill-opacity="1.000000" fill-rule="nonzero"/>
</svg>
