<svg width="25.988281" height="23.972656" viewBox="0 0 25.9883 23.9727" fill="none" xmlns="http://www.w3.org/2000/svg" xmlns:xlink="http://www.w3.org/1999/xlink">
	<desc>
			Created with Pixso.
	</desc>
	<defs/>
	<path id="Vector" d="M21.3926 22.9746L21.2793 22.9746C20.6699 22.9746 20.1582 22.4746 20.1152 21.8359C20.0703 21.168 20.5586 20.5859 21.2031 20.541C21.2285 20.5391 21.2559 20.5391 21.2812 20.5391C21.8984 20.5391 22.416 21.0293 22.4609 21.6562C22.4727 21.9043 22.4336 22.2578 22.1777 22.5508L22.1719 22.5586L22.166 22.5645C21.9688 22.7988 21.7012 22.9395 21.3926 22.9746ZM7.66016 22.9668C7.00977 22.9668 6.48047 22.4238 6.48047 21.7578C6.48047 21.0898 7.00977 20.5469 7.66016 20.5469C8.31055 20.5469 8.83984 21.0898 8.83984 21.7578C8.83984 22.4238 8.31055 22.9668 7.66016 22.9668Z" fill="#FFFFFF" fill-opacity="1.000000" fill-rule="nonzero"/>
	<path id="Vector" d="M21.3145 21.9727C21.3613 21.9609 21.3809 21.9414 21.4004 21.9199C21.4082 21.9102 21.416 21.9023 21.4238 21.8926C21.459 21.8516 21.4629 21.7617 21.4609 21.7168C21.4492 21.6113 21.3574 21.5391 21.2812 21.5391C21.2773 21.5391 21.2734 21.5391 21.2715 21.5391C21.1934 21.5449 21.1055 21.6484 21.1113 21.7695C21.1211 21.8867 21.207 21.9727 21.2793 21.9727L21.3145 21.9727ZM7.6582 21.9668C7.75781 21.9668 7.83789 21.873 7.83789 21.7559C7.83789 21.6406 7.75781 21.5469 7.6582 21.5469C7.56055 21.5469 7.47852 21.6406 7.47852 21.7559C7.47852 21.873 7.56055 21.9668 7.6582 21.9668ZM21.4395 23.9727C21.3906 23.9727 21.3281 23.9727 21.2793 23.9727C20.1406 23.9727 19.1953 23.0625 19.1152 21.9043C19.0352 20.6992 19.9336 19.625 21.1348 19.543C21.1836 19.541 21.2324 19.5391 21.2812 19.5391C22.4199 19.5391 23.3809 20.4395 23.459 21.5957C23.4902 22.1992 23.3145 22.7676 22.9297 23.209C22.5449 23.6641 22.0156 23.9238 21.4395 23.9727ZM7.6582 23.9668C6.45508 23.9668 5.47852 22.9785 5.47852 21.7559C5.47852 20.5352 6.45508 19.5469 7.6582 19.5469C8.86328 19.5469 9.83789 20.5352 9.83789 21.7559C9.83789 22.9785 8.86328 23.9668 7.6582 23.9668ZM20.6387 17.1016L8.57227 17.1016C8.13867 17.1016 7.75586 16.8066 7.64258 16.3848L3.7168 1.95508L0.960938 1.95508C0.433594 1.95508 0 1.51562 0 0.976562C0 0.439453 0.433594 0 0.960938 0L4.43945 0C4.87109 0 5.25586 0.292969 5.36719 0.716797L9.29297 15.1465L19.998 15.1465L23.5547 6.83984L11.6973 6.83984C11.168 6.83984 10.7344 6.40039 10.7344 5.86328C10.7344 5.32617 11.168 4.88672 11.6973 4.88672L25.0273 4.88672C25.3477 4.88672 25.6543 5.04883 25.8301 5.32617C26.0059 5.60156 26.0371 5.94531 25.9082 6.25391L21.5195 16.5137C21.3594 16.873 21.0215 17.1016 20.6387 17.1016Z" fill="#FFFFFF" fill-opacity="1.000000" fill-rule="nonzero"/>
</svg>
